name symmetric_stride_kinematics_IKTD_Minus_2.mot
datacolumns 38
datarows 15
range 1.04356328 1.05877822
endheader
                time	/jointset/ground_pelvis/pelvis_tilt/value	/jointset/ground_pelvis/pelvis_list/value	/jointset/ground_pelvis/pelvis_rotation/value	/jointset/ground_pelvis/pelvis_tx/value	/jointset/ground_pelvis/pelvis_ty/value	/jointset/ground_pelvis/pelvis_tz/value	/jointset/hip_r/hip_flexion_r/value	/jointset/hip_r/hip_adduction_r/value	/jointset/hip_r/hip_rotation_r/value	/jointset/knee_r/knee_angle_r/value	/jointset/ankle_r/ankle_angle_r/value	/jointset/subtalar_r/subtalar_angle_r/value	/jointset/mtp_r/mtp_angle_r/value	/jointset/hip_l/hip_flexion_l/value	/jointset/hip_l/hip_adduction_l/value	/jointset/hip_l/hip_rotation_l/value	/jointset/knee_l/knee_angle_l/value	/jointset/ankle_l/ankle_angle_l/value	/jointset/subtalar_l/subtalar_angle_l/value	/jointset/mtp_l/mtp_angle_l/value	/jointset/back/lumbar_extension/value	/jointset/back/lumbar_bending/value	/jointset/back/lumbar_rotation/value	/jointset/acromial_r/arm_flex_r/value	/jointset/acromial_r/arm_add_r/value	/jointset/acromial_r/arm_rot_r/value	/jointset/elbow_r/elbow_flex_r/value	/jointset/radioulnar_r/pro_sup_r/value	/jointset/radius_hand_r/wrist_flex_r/value	/jointset/radius_hand_r/wrist_dev_r/value	/jointset/acromial_l/arm_flex_l/value	/jointset/acromial_l/arm_add_l/value	/jointset/acromial_l/arm_rot_l/value	/jointset/elbow_l/elbow_flex_l/value	/jointset/radioulnar_l/pro_sup_l/value	/jointset/radius_hand_l/wrist_flex_l/value	/jointset/radius_hand_l/wrist_dev_l/value	
          1.04356328	         -8.36394524	          3.34990383	          5.78879815	         12.35000012	          0.99281557	          0.30787048	         29.66657876	        -10.67661649	          1.00295277	       -118.53295323	         -7.24334912	        -19.29687889	         -3.54916134	         35.39840587	          2.40786923	          0.39750719	        -17.43392709	        -21.43961580	        -16.14818750	         -1.19968827	        -16.61654678	         -7.82268623	          4.37650518	         -0.45028216	        -20.38710266	        -12.69939121	         73.51448897	         84.47310292	        -18.37224681	          5.53739742	         -6.09382089	        -25.76162826	        -14.26754846	        103.06331335	         77.87106922	        -23.37888702	          5.12406178	
          1.04421050	         -8.44287074	          3.26079015	          6.04515137	         12.35777160	          0.99231907	          0.30800034	         30.12745126	        -10.68684668	          0.85645081	       -118.86690559	         -7.03500819	        -19.34630828	         -3.38230904	         35.07917326	          2.41673699	          0.38859807	        -17.27792731	        -20.93598888	        -15.63277618	         -0.91525797	        -16.48640659	         -7.72593052	          4.16926834	         -0.99128274	        -20.14933999	        -12.45737690	         73.40222077	         84.20219269	        -18.29538699	          5.58999236	         -5.13146245	        -25.70027035	        -14.17963918	        103.37563620	         78.16229938	        -23.29474064	          5.11756915	
          1.04625546	         -8.68801418	          2.96668562	          6.86294996	         12.38235395	          0.99066054	          0.30841147	         31.59138113	        -10.73179897	          0.39032379	       -119.90772624	         -6.39358467	        -19.49482183	         -3.03815997	         34.06275199	          2.42947101	          0.44777024	        -16.81571079	        -19.23113997	        -14.22964598	         -0.11086681	        -16.06659031	         -7.41369752	          3.49142125	         -2.69574140	        -19.39781941	        -11.62796317	         73.12484983	         83.31959224	        -18.06739093	          5.80990439	         -2.08780529	        -25.48579135	        -13.89180946	        104.33926082	         79.22198147	        -23.01705136	          5.10202988	
          1.04773753	         -8.86013260	          2.74480798	          7.46147199	         12.40019811	          0.98937761	          0.30870796	         32.65803174	        -10.77957636	          0.05227083	       -120.64798310	         -5.94570205	        -19.59812698	         -2.96039571	         33.31767696	          2.42392455	          0.56575301	        -16.52077119	        -17.90119706	        -13.42464259	          0.49223966	        -15.75631335	         -7.18513930	          2.97822396	         -3.92850716	        -18.85048617	        -10.97831789	         72.98971980	         82.71786633	        -17.90715821	          5.99002839	          0.11619156	        -25.31194673	        -13.68277993	        105.02477361	         80.06550847	        -22.81076606	          5.10510135	
          1.04773753	         -8.86013260	          2.74480798	          7.46147199	         12.40019811	          0.98937761	          0.30870796	         32.65803174	        -10.77957636	          0.05227083	       -120.64798310	         -5.94570205	        -19.59812698	         -2.96039571	         33.31767696	          2.42392455	          0.56575301	        -16.52077119	        -17.90119706	        -13.42464259	          0.49223966	        -15.75631335	         -7.18513930	          2.97822396	         -3.92850716	        -18.85048617	        -10.97831789	         72.98971980	         82.71786633	        -17.90715821	          5.99002839	          0.11619156	        -25.31194673	        -13.68277993	        105.02477361	         80.06550847	        -22.81076606	          5.10510135	
          1.04838475	         -8.93357960	          2.64640804	          7.72398964	         12.40799850	          0.98879710	          0.30883651	         33.12505768	        -10.80522325	         -0.09470971	       -120.96740480	         -5.75541141	        -19.64321423	         -2.95862959	         32.98995212	          2.41752514	          0.63487860	        -16.40530288	        -17.29818054	        -13.12798277	          0.76614836	        -15.61964960	         -7.08568081	          2.74831529	         -4.46662474	        -18.61028304	        -10.68494726	         72.94634656	         82.47058385	        -17.83636058	          6.07026255	          1.07695600	        -25.23152432	        -13.59355654	        105.32300537	         80.43438817	        -22.72165464	          5.11087389	
          1.05042971	         -9.15865814	          2.33191527	          8.55598848	         12.43267825	          0.98688487	          0.30923522	         34.60535404	        -10.90727075	         -0.55291277	       -121.96059974	         -5.18630686	        -19.79498091	         -2.83193832	         31.94693865	          2.37906988	          0.90845273	        -16.11834996	        -15.23243973	        -12.30024319	          1.92706230	        -15.18348643	         -6.77655834	          1.99809618	         -6.16372269	        -17.85133918	         -9.71328026	         72.86189897	         81.69205495	        -17.60738629	          6.35612127	          4.09930627	        -24.96111095	        -13.32888148	        106.26612102	         81.57744178	        -22.45240915	          5.12436625	
          1.05191178	         -9.30755970	          2.10172678	          9.15726774	         12.45059847	          0.98544223	          0.30951177	         35.67437849	        -10.99816333	         -0.87537386	       -122.66328521	         -4.79834655	        -19.90970403	         -2.58906865	         31.17719800	          2.32950487	          1.14342819	        -16.00591930	        -13.54104676	        -11.77049529	          2.89106305	        -14.87245125	         -6.55775936	          1.43515778	         -7.38844331	        -17.30129851	         -8.97585063	         72.83890670	         81.12830527	        -17.43666905	          6.59401326	          6.27532990	        -24.75003747	        -13.16162466	        106.95508358	         82.39570456	        -22.26896314	          5.12801978	
          1.05191178	         -9.30755970	          2.10172678	          9.15726774	         12.45059847	          0.98544223	          0.30951177	         35.67437849	        -10.99816333	         -0.87537386	       -122.66328521	         -4.79834655	        -19.90970403	         -2.58906865	         31.17719800	          2.32950487	          1.14342819	        -16.00591930	        -13.54104676	        -11.77049529	          2.89106305	        -14.87245125	         -6.55775936	          1.43515778	         -7.38844331	        -17.30129851	         -8.97585063	         72.83890670	         81.12830527	        -17.43666905	          6.59401326	          6.27532990	        -24.75003747	        -13.16162466	        106.95508358	         82.39570456	        -22.26896314	          5.12801978	
          1.05255900	         -9.36719990	          2.00110889	          9.41826104	         12.45843328	          0.98480165	          0.30962787	         36.13854669	        -11.04172578	         -1.01240670	       -122.96519329	         -4.63428341	        -19.96011412	         -2.43158057	         30.83597532	          2.30134613	          1.25284360	        -15.98682460	        -12.74322825	        -11.55326706	          3.30471634	        -14.74005923	         -6.46395410	          1.18517197	         -7.92139000	        -17.06098664	         -8.64753569	         72.83552143	         80.88126229	        -17.36079160	          6.70237551	          7.22135418	        -24.65397538	        -13.09717544	        107.25858428	         82.75326700	        -22.19193359	          5.12766675	
          1.05460396	         -9.52379435	          1.68109365	         10.23518541	         12.48322380	          0.98275821	          0.30997373	         37.58174931	        -11.18921747	         -1.43259447	       -123.89622254	         -4.12051726	        -20.11391037	         -1.81050956	         29.72770228	          2.17946481	          1.60330453	        -16.05991239	        -10.06470074	        -10.91786436	          4.64011837	        -14.34820108	         -6.16954007	          0.38063529	         -9.59932737	        -16.30686144	         -7.58381474	         72.85639644	         80.26601349	        -17.10599991	          7.05736569	         10.19285609	        -24.33582532	        -12.93484001	        108.23171849	         83.86602326	        -21.96086183	          5.10831126	
          1.05608604	         -9.60832121	          1.44661467	         10.81897793	         12.50121815	          0.98126760	          0.31020523	         38.60746016	        -11.30344453	         -1.72528693	       -124.54783600	         -3.74311131	        -20.21801237	         -1.38266686	         28.89790352	          2.05826099	          1.86752525	        -16.23459253	         -8.01982321	        -10.50690109	          5.55387084	        -14.08941033	         -5.95599282	         -0.21427389	        -10.81598295	        -15.76610199	         -6.79891808	         72.91730994	         79.89531155	        -16.91433522	          7.33721233	         12.32870514	        -24.08450763	        -12.87036733	        108.95644662	         84.62993049	        -21.80508201	          5.09164380	
          1.05608604	         -9.60832121	          1.44661467	         10.81897793	         12.50121815	          0.98126760	          0.31020523	         38.60746016	        -11.30344453	         -1.72528693	       -124.54783600	         -3.74311131	        -20.21801237	         -1.38266686	         28.89790352	          2.05826099	          1.86752525	        -16.23459253	         -8.01982321	        -10.50690109	          5.55387084	        -14.08941033	         -5.95599282	         -0.21427389	        -10.81598295	        -15.76610199	         -6.79891808	         72.91730994	         79.89531155	        -16.91433522	          7.33721233	         12.32870514	        -24.08450763	        -12.87036733	        108.95644662	         84.62993049	        -21.80508201	          5.09164380	
          1.05673326	         -9.63803978	          1.34360931	         11.07145693	         12.50908189	          0.98061650	          0.31030142	         39.05069818	        -11.35489245	         -1.84985696	       -124.82590617	         -3.57607062	        -20.26184850	         -1.21260829	         28.52906849	          1.99647461	          1.98688294	        -16.34073727	         -7.11652813	        -10.34144523	          5.97286950	        -13.98301196	         -5.86240324	         -0.47665236	        -11.34894605	        -15.53142662	         -6.45596520	         72.96012357	         79.74044677	        -16.83135060	          7.47289270	         13.25648786	        -23.96756856	        -12.85975239	        109.27961720	         84.94850582	        -21.74024551	          5.08800257	
          1.05877822	         -9.71481256	          1.01877406	         11.85471011	         12.53393965	          0.97855635	          0.31058365	         40.44915414	        -11.52475971	         -2.22243995	       -125.67935175	         -3.03564146	        -20.39270706	         -0.98686811	         27.34883912	          1.76962242	          2.41534097	        -16.77463029	         -4.20109882	         -9.85004089	          7.29673424	        -13.66240540	         -5.57003834	         -1.31090788	        -13.04874595	        -14.79384901	         -5.38788838	         73.16966695	         79.11706251	        -16.56910283	          7.89845600	         16.16550330	        -23.55920665	        -12.91409246	        110.33084537	         85.88866963	        -21.54702223	          5.08785269	
